<svg xmlns="http://www.w3.org/2000/svg" width="18" height="24" viewBox="0 0 18 24">
  <path fill="#b5b5b5" d="m3 0c-1.644531 0-3 1.355469-3 3 0 1.292969.84375 2.394531 2 2.8125v12.375c-1.15625.417969-2 1.519531-2 2.8125 0 1.644531 1.355469 3 3 3s3-1.355469 3-3c0-1.269531-.816406-2.34375-1.9375-2.78125.144531-1.230469.621094-1.835937 1.375-2.34375.898438-.605469 2.277344-.964844 3.78125-1.3125s3.117188-.707031 4.46875-1.65625c1.1875-.832031 2.085938-2.195312 2.28125-4.09375 1.171875-.410156 2.03125-1.511719 2.03125-2.8125 0-1.644531-1.355469-3-3-3s-3 1.355469-3 3c0 1.277344.832031 2.351563 1.96875 2.78125-.136719 1.3125-.644531 1.964844-1.40625 2.5-.898437.628906-2.285156 1-3.78125 1.34375s-3.117187.648438-4.46875 1.5625c-.109375.074219-.210937.167969-.3125.25v-8.625c1.15625-.417969 2-1.519531 2-2.8125 0-1.644531-1.355469-3-3-3zm0 2c.5625 0 1 .4375 1 1s-.4375 1-1 1-1-.4375-1-1 .4375-1 1-1zm12 3c.5625 0 1 .4375 1 1s-.4375 1-1 1-1-.4375-1-1 .4375-1 1-1zm-12 15c.5625 0 1 .4375 1 1s-.4375 1-1 1-1-.4375-1-1 .4375-1 1-1z"/>
</svg>
