<svg height="20" viewBox="0 0 24 20" width="24" xmlns="http://www.w3.org/2000/svg"><path d="m12 0c-6.617187 0-12 5.382813-12 12 0 2.894531 1.035156 5.550781 2.75 7.625l.28125.375h17.9375l.28125-.375c1.714844-2.074219 2.75-4.730469 2.75-7.625 0-6.617187-5.382812-12-12-12zm0 2c5.535156 0 10 4.464844 10 10 0 2.265625-.792969 4.324219-2.0625 6h-15.875c-1.269531-1.675781-2.0625-3.734375-2.0625-6 0-5.535156 4.464844-10 10-10zm0 1c-.550781 0-1 .449219-1 1s.449219 1 1 1 1-.449219 1-1-.449219-1-1-1zm-4 1.0625c-.550781 0-1 .449219-1 1s.449219 1 1 1 1-.449219 1-1-.449219-1-1-1zm8 0c-.550781 0-1 .449219-1 1s.449219 1 1 1 1-.449219 1-1-.449219-1-1-1zm-10.9375 2.9375c-.550781 0-1 .449219-1 1s.449219 1 1 1 1-.449219 1-1-.449219-1-1-1zm13.59375.03125-5.65625 3.25c-.292969-.171875-.636719-.28125-1-.28125-1.105469 0-2 .894531-2 2s.894531 2 2 2c1.09375 0 1.984375-.878906 2-1.96875 0-.011719 0-.019531 0-.03125l5.65625-3.21875zm-14.65625 3.96875c-.550781 0-1 .449219-1 1s.449219 1 1 1 1-.449219 1-1-.449219-1-1-1zm16 0c-.550781 0-1 .449219-1 1s.449219 1 1 1 1-.449219 1-1-.449219-1-1-1zm-14.9375 4c-.550781 0-1 .449219-1 1s.449219 1 1 1 1-.449219 1-1-.449219-1-1-1zm13.875 0c-.550781 0-1 .449219-1 1s.449219 1 1 1 1-.449219 1-1-.449219-1-1-1z" fill="#b5b5b5"/></svg>