<svg xmlns="http://www.w3.org/2000/svg" width="27" height="20" viewBox="0 0 27 20">
  <path fill="#b5b5b5" d="m6.8125 0c-1.320312 0-2.496094.859375-2.875 2.125l-1.375 4.59375-1.9375-.65625-.625 1.875 1.96875.65625-.625 2.125c-.023437.089844-.035156.1875-.03125.28125v7 .09375.90625c0 .550781.449219 1 1 1h3l.34375-1h15.3125l.34375 1h3c.550781 0 1-.449219 1-1v-.84375c.003906-.050781.003906-.105469 0-.15625v-7c.003906-.09375-.007812-.191406-.03125-.28125l-.625-2.125 1.96875-.65625-.625-1.875-1.9375.65625-1.375-4.59375c-.378906-1.265625-1.554687-2.125-2.875-2.125zm0 2h13c.445313 0 .839844.292969.96875.71875l1.28125 4.28125h-17.5l1.28125-4.28125c.128906-.429687.523438-.71875.96875-.71875zm-2.84375 7h18.6875l.65625 2.1875v5.8125h-20v-5.8125zm1.84375 1c-.828125 0-1.5.671875-1.5 1.5s.671875 1.5 1.5 1.5 1.5-.671875 1.5-1.5-.671875-1.5-1.5-1.5zm15 0c-.828125 0-1.5.671875-1.5 1.5s.671875 1.5 1.5 1.5 1.5-.671875 1.5-1.5-.671875-1.5-1.5-1.5zm-11.5 3-1.25 3h2.15625l.4375-1h5.3125l.4375 1h2.15625l-1.25-3z"/>
</svg>
