<svg height="100" viewBox="0 0 100 100" width="100" xmlns="http://www.w3.org/2000/svg" xmlns:xlink="http://www.w3.org/1999/xlink"><defs><path id="a" d="m0 0h100v100h-100z"/><mask id="b" fill="#fff"><use fill="#fff" fill-rule="evenodd" xlink:href="#a"/></mask><mask id="c" fill="#fff"><path d="m0 58.569h70v-58.569h-70z" fill="#fff" fill-rule="evenodd"/></mask></defs><g fill="none" fill-rule="evenodd"><use fill="#c3002f" xlink:href="#a"/><g mask="url(#b)"><g fill="#fff" transform="translate(15 21)"><path d="m40.7916389 31.6250556c-.0554167.0138888-.2777778.0138888-.375.0138888h-7.1666667v1.6666667h7.2916667c.0556944 0 .4861111 0 .5694444-.0138889 1.4861111-.1388889 2.1666667-1.375 2.1666667-2.4583333 0-1.1111111-.7083333-2.3055556-2.0554167-2.4305556-.2640277-.0277777-.4861111-.0277777-.5834722-.0277777h-4.76375c-.2083333 0-.4445833-.0138889-.5279167-.0416667-.375-.0972222-.5138888-.4305556-.5138888-.7083333 0-.2501389.1388888-.5833334.5277777-.6944445.1111111-.0277778.23625-.0418055.5-.0418055h6.875v-1.63875h-6.9861111c-.2915278 0-.5138889.0138888-.6944444.0415277-1.1944445.1668056-2.0277778 1.1251389-2.0277778 2.3473611 0 1 .625 2.1665278 2 2.3611112.25.0277777.5972222.0277777.75.0277777h4.6388889c.0833333 0 .2916667 0 .3333333.0138889.5277778.0694445.7083334.4581945.7083334.8054167 0 .3334722-.2083334.6944444-.6666667.7779167m-13.5833056 0c-.0555555.0138888-.2777777.0138888-.3611111.0138888h-7.1805555v1.6666667h7.2916666c.0555556 0 .4861111 0 .5694445-.0138889 1.4861111-.1388889 2.1666666-1.375 2.1666666-2.4583333 0-1.1111111-.7083333-2.3055556-2.0555555-2.4305556-.2638889-.0277777-.4861111-.0277777-.5833333-.0277777h-4.7638889c-.2083334 0-.4444445-.0138889-.5277778-.0416667-.375-.0972222-.5138889-.4305556-.5138889-.7083333 0-.2501389.1388889-.5833334.5277778-.6944445.1111111-.0277778.2361111-.0418055.5-.0418055h6.875v-1.63875h-6.9861111c-.2916667 0-.5138889.0138888-.6944445.0415277-1.1944444.1668056-2.0277778 1.1251389-2.0277778 2.3473611 0 1 .625 2.1665278 2 2.3611112.25.0277777.5972223.0277777.75.0277777h4.6388889c.0833334 0 .2916667 0 .3333334.0138889.5277777.0694445.7083333.4581945.7083333.8054167 0 .3334722-.1944444.6944444-.6666667.7779167"/><path d="m14.125 33.347h1.806v-8.153h-1.806z" mask="url(#c)"/><path d="m10.139 33.347v-8.153h-1.806v6.084l-6.014-6.084h-2.319v8.153h1.806v-6.111l6.055 6.111z" mask="url(#c)"/><path d="m68.208 25.194v6.084l-6.014-6.084h-2.319v8.153h1.806v-6.111l6.041 6.111h2.278v-8.153z" mask="url(#c)"/><path d="m53.4861389 30.34725h-4.0694445l2.0415278-3.2777778zm-3.0138889-5.1527778-5.0833333 8.1527778h2.1944444l.9027778-1.4583333h5.9305555l.9027778 1.4583333h2.1804167l-5.0831945-8.1527778zm-40.4305972-4.6250555c3.6388889-10.62500003 13.6666666-17.76388892 24.9722222-17.76388892s21.3472222 7.13888889 24.9722222 17.76388892l.0277778.0833333h7.9583333v-.9583333l-3.3055555-.3888889c-2.0416667-.2361111-2.4722222-1.1388889-3.0277778-2.2777778l-.1388889-.2777778c-4.7777778-10.16666664-15.1805555-16.74999998-26.4861111-16.74999998-11.3194444 0-21.7083333 6.58333334-26.48611111 16.77777778l-.13888889.2777778c-.55555556 1.1388889-.98611111 2.0416666-3.02777778 2.2777778l-3.30555555.3888888v.9583334h7.94444444zm49.9722639 17.3333055-.0277778.0834722c-3.6388889 10.625-13.6668056 17.7498612-24.9722222 17.7498612-11.3055556 0-21.3472223-7.1388889-24.9722223-17.7638889l-.0277777-.0833334h-7.94444448v.9584723l3.30555556.3888888c2.04166666.2361112 2.47222222 1.1388889 3.02777778 2.2776389l.13888888.2777778c4.77777776 10.1944445 15.18055556 16.7779167 26.48611116 16.7779167 11.3055555 0 21.7081944-6.5834722 26.4861111-16.7638889l.1388889-.2777778c.5555555-1.1390278.9859722-2.0418055 3.0277777-2.2779167l3.3054167-.3888888v-.9583334z" mask="url(#c)"/></g></g></g></svg>