<?xml version="1.0" encoding="UTF-8"?>
<svg width="20px" height="20px" viewBox="0 0 20 20" version="1.1" xmlns="http://www.w3.org/2000/svg" xmlns:xlink="http://www.w3.org/1999/xlink">
    <title>search</title>
    <g id="Tienda" stroke="none" stroke-width="1" fill="none" fill-rule="evenodd">
        <g transform="translate(-962.000000, -40.000000)" fill="#343434" fill-rule="nonzero" id="Navigation-Bar">
            <g transform="translate(165.000000, 0.000000)">
                <g id="Input:-Search" transform="translate(767.000000, 20.000000)">
                    <g id="search" transform="translate(30.000000, 20.000000)">
                        <path d="M12.3076923,0 C8.06790846,0 4.61538462,3.45252385 4.61538462,7.69230769 C4.61538462,9.53425462 5.26141846,11.2229569 6.34615385,12.5480769 L0.216346154,18.6778846 L1.32211538,19.7836538 L7.45192308,13.6538462 C8.77704308,14.7385815 10.4657454,15.3846154 12.3076923,15.3846154 C16.5474762,15.3846154 20,11.9320915 20,7.69230769 C20,3.45252385 16.5474762,0 12.3076923,0 Z M12.3076923,1.53846154 C15.7151446,1.53846154 18.4615385,4.28485615 18.4615385,7.69230769 C18.4615385,11.09976 15.7151446,13.8461538 12.3076923,13.8461538 C8.90024077,13.8461538 6.15384615,11.09976 6.15384615,7.69230769 C6.15384615,4.28485615 8.90024077,1.53846154 12.3076923,1.53846154 Z" id="Shape"></path>
                    </g>
                </g>
            </g>
        </g>
    </g>
</svg>